<svg width="26" height="15" viewBox="0 0 26 15" fill="none" xmlns="http://www.w3.org/2000/svg">
<path d="M25.8891 7.39939C25.8129 7.46143 25.7312 7.51788 25.662 7.58705C23.4583 9.80231 21.2561 12.0186 19.055 14.2364C18.9843 14.3076 18.9288 14.394 18.8894 14.4444C18.4807 14.0365 18.1032 13.6597 17.7152 13.2722C19.3638 11.6143 21.0477 9.9208 22.7857 8.1729H0.111328V6.53587H22.6933C21.0043 4.8373 19.3224 3.14584 17.6652 1.4788C18.0916 1.04603 18.4661 0.665627 18.9026 0.222168C18.9313 0.269463 18.9687 0.371683 19.0383 0.441863C21.244 2.66679 23.4528 4.88917 25.662 7.11002C25.7312 7.17919 25.8129 7.23513 25.8891 7.29768V7.39888V7.39939Z" fill="#FFE502"/>
</svg>
