<svg width="43" height="32" viewBox="0 0 43 32" fill="none" xmlns="http://www.w3.org/2000/svg">
<path d="M42.8308 23.199C41.3276 31.6124 25.5665 32.5659 17.1643 31.0627C8.76217 29.5595 7.64038 21.6397 9.14357 13.2263C10.6468 4.81295 18.7573 4.08379 27.1707 5.58698C35.5728 7.07895 44.334 14.7856 42.8308 23.199Z" fill="#FFE502"/>
<path d="M42.9988 14.0227C42.808 14.9874 42.6061 15.9634 42.4154 16.9281C42.1574 18.2855 41.9106 19.6541 41.6526 21.0114C41.5404 21.5948 41.2488 21.8415 40.643 21.8528C40.2055 21.864 39.7792 21.8528 39.3642 21.8528C38.4443 24.2983 37.0084 25.4537 34.9219 25.4425C32.8578 25.4313 31.3883 24.2534 30.5133 21.8528C30.3899 21.8528 30.2553 21.8528 30.1207 21.8528C26.7665 21.8528 23.4012 21.8528 20.047 21.8415C19.7217 21.8415 19.5983 21.9425 19.5086 22.2454C18.9365 24.1636 17.1865 25.4425 15.2009 25.4313C13.2378 25.42 11.4878 24.1076 10.9381 22.1893C10.8484 21.8864 10.7138 21.8303 10.4446 21.8415C9.69296 21.8528 8.93015 21.8528 8.17855 21.8415C7.57279 21.8303 7.16895 21.4714 7.16895 20.9553C7.16895 20.4281 7.57279 20.0691 8.17855 20.0691C9.05354 20.0579 9.93975 20.0691 10.826 20.0691C10.8933 19.8448 10.9494 19.6428 11.0279 19.4409C11.6785 17.6573 13.4397 16.4345 15.2907 16.4794C17.2538 16.5243 18.9365 17.7695 19.4974 19.6316C19.5983 19.9906 19.7554 20.0803 20.0919 20.0691C21.4941 20.0467 22.8852 20.0579 24.3547 20.0579C25.712 14.1124 27.0694 8.15577 28.438 2.15422C28.1912 2.15422 28.0117 2.15422 27.8322 2.15422C21.382 2.15422 14.9317 2.15422 8.48143 2.15422C8.26829 2.15422 8.05516 2.15422 7.85323 2.10935C7.44939 2.01961 7.18016 1.66063 7.16895 1.25679C7.16895 0.852948 7.43817 0.493976 7.84202 0.393015C7.99907 0.359362 8.17855 0.348145 8.3356 0.348145C15.3131 0.348145 22.3018 0.348145 29.2793 0.348145C30.2216 0.348145 30.5806 0.79686 30.3675 1.71672C30.0646 3.04043 29.7617 4.35292 29.4476 5.72149C29.6607 5.72149 29.8178 5.72149 29.986 5.72149C31.8931 5.73271 33.8001 5.67662 35.6959 5.7888C39.3081 6.01316 42.4154 9.00833 42.8978 12.598C42.9202 12.7327 42.9539 12.8673 42.9875 13.0019C42.9988 13.3609 42.9988 13.6974 42.9988 14.0227ZM30.5357 20.0579C31.0742 17.8368 32.8803 16.5579 34.8434 16.4906C36.885 16.4233 38.4107 17.6236 39.3417 20.0467C39.5549 20.0467 39.7792 20.0467 40.0148 20.0467C40.3401 18.3079 40.6542 16.5916 40.9795 14.8753C41.1254 14.09 41.2824 13.3272 41.1029 12.5195C40.4747 9.65896 38.018 7.6061 35.079 7.55001C33.6094 7.51635 32.1399 7.53879 30.6703 7.53879C30.1431 7.53879 29.6159 7.53879 29.055 7.53879C28.1014 11.723 27.1592 15.8849 26.2056 20.0579C27.6976 20.0579 29.0998 20.0579 30.5357 20.0579ZM34.9443 18.2967C33.4524 18.2967 32.2521 19.4858 32.2521 20.9778C32.2521 22.4585 33.486 23.6813 34.9556 23.6588C36.4251 23.6476 37.6142 22.4473 37.6254 20.989C37.6254 19.497 36.4363 18.2967 34.9443 18.2967ZM17.8932 21.0226C17.8932 19.4858 16.7602 18.3079 15.257 18.2967C13.765 18.2855 12.5647 19.4521 12.5535 20.9217C12.5535 22.4585 13.7426 23.6813 15.2346 23.6588C16.7041 23.6476 17.8932 22.4697 17.8932 21.0226Z" fill="black"/>
<path d="M6.283 16.4794C4.5218 16.4794 2.7606 16.4907 0.999397 16.4794C0.225365 16.4794 -0.223349 15.8064 0.113186 15.1782C0.30389 14.8192 0.629207 14.6958 1.02183 14.6958C2.67086 14.6958 4.31988 14.6958 5.9689 14.6958C7.81985 14.6958 9.65958 14.6958 11.5105 14.6958C12.0714 14.6958 12.4304 14.9538 12.5201 15.3913C12.6435 15.9971 12.2397 16.4682 11.5666 16.4682C9.80541 16.4907 8.04421 16.4794 6.283 16.4794Z" fill="black"/>
<path d="M7.15827 11.1059C5.67751 11.1059 4.19676 11.1171 2.70478 11.1059C2.16633 11.1059 1.78492 10.7021 1.79614 10.2085C1.80736 9.71489 2.18876 9.3447 2.72722 9.32227C2.77209 9.32227 2.80575 9.32227 2.85062 9.32227C5.7336 9.32227 8.61659 9.32227 11.4996 9.32227C12.139 9.32227 12.5316 9.67002 12.5204 10.2309C12.5204 10.7694 12.139 11.1059 11.5108 11.1059C10.0637 11.1171 8.61659 11.1059 7.15827 11.1059Z" fill="black"/>
<path d="M8.03311 5.73249C6.87768 5.73249 5.71102 5.74371 4.55558 5.73249C3.90495 5.72127 3.52354 5.27256 3.6245 4.67802C3.69181 4.27417 4.03956 3.96007 4.48828 3.96007C6.87768 3.94886 9.26708 3.94886 11.6565 3.96007C12.1837 3.96007 12.5315 4.34148 12.5427 4.83506C12.5539 5.35109 12.1949 5.73249 11.6453 5.73249C10.4337 5.74371 9.23342 5.73249 8.03311 5.73249Z" fill="black"/>
</svg>
