<svg width="36" height="36" viewBox="0 0 36 36" fill="none" xmlns="http://www.w3.org/2000/svg">
<path d="M35.8454 27.4833C34.4644 35.1746 20.0694 36.045 12.3781 34.664C4.68676 33.2831 3.66571 26.0438 5.04664 18.3608C6.42756 10.6779 13.8343 9.99997 21.5173 11.3809C29.2086 12.7618 37.2179 19.8003 35.8454 27.4833Z" fill="#FFE502"/>
<path d="M0 3.92376C0.200861 3.56389 0.502153 3.44672 0.912245 3.46346C1.47298 3.48857 2.04209 3.46346 2.60283 3.46346C4.44405 3.47183 5.74128 4.55146 6.08442 6.35084C6.2267 7.11244 6.38571 7.86567 6.53636 8.6189C6.54473 8.67748 6.5782 8.73606 6.60331 8.81139C7.74989 8.81139 8.88811 8.81139 10.0263 8.81139C10.4532 8.81139 10.8884 8.81139 11.3152 8.81139C11.7587 8.81976 12.06 9.09594 12.0517 9.48929C12.0433 9.87428 11.7587 10.1421 11.3235 10.1421C9.93426 10.1505 8.54497 10.1421 7.14731 10.1421C7.06362 10.1421 6.97993 10.1505 6.86276 10.1588C6.9883 10.82 7.11383 11.4561 7.23937 12.0921C7.81685 14.9628 8.39432 17.8418 8.9718 20.7124C9.05549 21.1309 9.13081 21.5493 9.23125 21.9678C9.24798 22.0515 9.38189 22.1101 9.46558 22.1687C9.50743 22.1938 9.56601 22.1687 9.61623 22.1687C14.8051 22.1687 19.9941 22.1687 25.183 22.177C25.4592 22.177 25.5931 22.1184 25.6265 21.8255C25.6935 21.3401 25.8107 20.8631 25.9111 20.386C25.9948 19.9843 26.3212 19.7416 26.6727 19.8002C27.0577 19.8671 27.3004 20.1852 27.2251 20.612C27.0828 21.3987 26.9238 22.1854 26.7564 22.9721C26.6811 23.3236 26.4467 23.4994 26.0868 23.5245C25.9864 23.5328 25.8776 23.5245 25.7772 23.5245C20.2953 23.5245 14.8135 23.5245 9.33168 23.5245C8.24368 23.5245 7.15568 23.5161 6.06768 23.5245C5.55716 23.5245 5.2475 23.9262 5.38978 24.3781C5.47347 24.6543 5.67433 24.805 5.95888 24.8468C6.08442 24.8635 6.20996 24.8552 6.3355 24.8552C13.7171 24.8552 21.1072 24.8552 28.4888 24.8552C28.606 24.8552 28.7232 24.8468 28.832 24.8635C29.2002 24.897 29.4513 25.1732 29.4429 25.5331C29.4429 25.893 29.1918 26.1524 28.8152 26.1859C28.7232 26.1942 28.6311 26.1942 28.5307 26.1942C21.0904 26.1942 13.6586 26.1942 6.21833 26.1859C5.93377 26.1859 5.62411 26.1608 5.3563 26.0687C4.44405 25.7758 3.87495 24.8217 4.02559 23.9095C4.18461 22.9051 4.98805 22.2105 6.0342 22.1854C6.62842 22.1687 7.22263 22.1854 7.85869 22.1854C7.75826 21.6498 7.65783 21.156 7.56577 20.6622C6.99667 17.7581 6.41082 14.8791 5.84171 11.9917C5.47347 10.1672 5.12196 8.33434 4.75371 6.50985C4.52775 5.41348 3.76615 4.80253 2.64467 4.80253C2.05883 4.80253 1.47298 4.78579 0.887137 4.8109C0.477045 4.82764 0.175753 4.69373 0.00836909 4.30038C-1.27829e-07 4.17484 0 4.0493 0 3.92376Z" fill="black"/>
<path d="M32.1378 10.1842C32.0123 10.7867 31.9453 11.4061 31.7528 11.9835C30.5728 15.4651 28.1708 17.5825 24.5135 18.068C19.8183 18.6957 15.6086 15.4902 14.8303 10.8035C14.0603 6.18367 17.3661 1.61408 22.0027 0.902698C26.7397 0.174576 31.0498 3.17075 31.9872 7.84915C32.0458 8.14207 32.0876 8.44336 32.1378 8.73628C32.1378 9.23007 32.1378 9.70711 32.1378 10.1842ZM23.4338 2.1246C19.3748 2.1246 16.0689 5.43044 16.0689 9.47277C16.0689 13.5235 19.3748 16.8209 23.4338 16.8293C27.4845 16.8293 30.8071 13.5235 30.8071 9.48114C30.7987 5.43881 27.4845 2.11623 23.4338 2.1246Z" fill="black"/>
<path d="M10.294 32.8647C10.0513 32.781 9.80025 32.7057 9.56591 32.5969C8.38585 32.0445 7.78327 30.7221 8.13478 29.4835C8.48628 28.203 9.65797 27.4163 11.0222 27.5335C12.2022 27.6339 13.2567 28.6801 13.3739 29.8685C13.4994 31.2243 12.7127 32.396 11.4406 32.7559C11.3318 32.7893 11.223 32.8228 11.1226 32.8563C10.838 32.8647 10.5618 32.8647 10.294 32.8647ZM12.0516 30.1865C12.0516 29.45 11.449 28.8558 10.7125 28.8558C9.976 28.8558 9.37342 29.4668 9.37342 30.1949C9.37342 30.923 9.99274 31.534 10.7209 31.534C11.449 31.534 12.0516 30.923 12.0516 30.1865Z" fill="black"/>
<path d="M22.3458 32.8647C22.1031 32.781 21.852 32.7057 21.6177 32.5969C20.4376 32.0445 19.835 30.7221 20.1865 29.4835C20.538 28.203 21.7097 27.4163 23.0739 27.5335C24.254 27.6339 25.3085 28.6801 25.4257 29.8685C25.5512 31.2243 24.7645 32.396 23.4924 32.7559C23.3836 32.7893 23.2748 32.8228 23.1743 32.8563C22.8898 32.8647 22.6136 32.8647 22.3458 32.8647ZM22.7559 28.8558C22.0194 28.8642 21.4168 29.4751 21.4252 30.2033C21.4335 30.9314 22.0529 31.5423 22.781 31.534C23.5175 31.5256 24.1117 30.9146 24.1117 30.1865C24.095 29.45 23.4924 28.8558 22.7559 28.8558Z" fill="black"/>
<path d="M22.0614 11.1716C22.9736 10.1338 23.8524 9.12947 24.7312 8.12516C25.2166 7.56442 25.702 7.01205 26.1958 6.45132C26.5222 6.08307 26.8988 6.03286 27.2085 6.2923C27.5181 6.55175 27.5265 6.96184 27.2168 7.31335C25.702 9.05415 24.1788 10.7866 22.6556 12.519C22.3208 12.904 21.9275 12.9124 21.5676 12.5608C20.7056 11.7072 19.8519 10.8535 18.9983 9.9915C18.6802 9.67347 18.6719 9.26338 18.9564 8.99556C19.241 8.71938 19.626 8.73611 19.9524 9.06251C20.647 9.75716 21.3416 10.4518 22.0614 11.1716Z" fill="black"/>
</svg>
