<svg width="354" height="26" viewBox="0 0 354 26" fill="none" xmlns="http://www.w3.org/2000/svg">
<path fill-rule="evenodd" clip-rule="evenodd" d="M293.747 24.5251L292.49 25.6897L283.954 17.6822C283.579 18.0274 283.207 18.3677 282.838 18.7049C281.104 20.2898 279.444 21.8064 277.92 23.4397C276.196 25.2926 274.943 25.5943 273.102 23.6249L270.83 25.6897L263.029 18.2931L254.94 25.6397L252.368 23.2389L249.81 25.5897L241.634 18.1423L233.49 25.6897L230.884 23.245L228.05 25.9097C227.456 25.3581 226.869 24.8145 226.285 24.2729C224.222 22.3591 222.186 20.4714 219.899 18.3543L211.83 25.6897L209.502 23.482L207.86 25.7697L206.5 24.7197V25.5297L198.788 18.2577L190.81 25.5897L188.997 23.9381C187.5 25.3441 186.309 25.403 184.62 23.5697C182.914 21.7183 181.05 20.0303 179.104 18.2684C178.779 17.9744 178.452 17.6783 178.123 17.379L169.05 25.9097C168.578 25.4717 168.111 25.0387 167.646 24.6078L166.51 25.6397L155.995 15.8251L148.86 25.7697L147.5 24.7197V25.5297L146.376 24.4699L145.06 25.6897L136.524 17.6822C136.149 18.0274 135.777 18.3677 135.408 18.705C133.674 20.2899 132.014 21.8064 130.49 23.4397C128.766 25.2926 127.513 25.5943 125.672 23.6249L123.4 25.6897L115.599 18.2931L107.51 25.6397L104.938 23.2389L102.38 25.5897L94.204 18.1423L86.0603 25.6897L83.4543 23.245L80.6203 25.9097C80.0277 25.3602 79.4437 24.8186 78.8619 24.279C76.7961 22.3631 74.7588 20.4737 72.4692 18.3543L64.4003 25.6897L62.0717 23.482L60.4303 25.7697L59.0703 24.7197V20.6365L54.0003 15.8297L43.3803 25.5897L32.5003 15.6797L21.6203 25.9097C21.0272 25.3597 20.4426 24.8175 19.8602 24.2774C16.6627 21.3119 13.5331 18.4095 9.43031 14.6197L1.43031 25.7697L0.0703125 24.7197V0.949707H59.0703H294.86H353.86V25.5897L344.29 16.4397C343.461 17.2217 342.641 17.9707 341.838 18.7049C340.104 20.2898 338.444 21.8064 336.92 23.4397C335.18 25.3097 333.92 25.5997 332.05 23.5697C330.344 21.7183 328.48 20.0303 326.534 18.2684C325.8 17.6036 325.054 16.9283 324.3 16.2297L313.94 25.6397L303.28 15.6897L294.86 23.4932V25.5897L293.747 24.5251Z" fill="#F9F9F9"/>
</svg>
