<svg width="83" height="82" viewBox="0 0 83 82" fill="none" xmlns="http://www.w3.org/2000/svg">
<g clip-path="url(#clip0_457_13557)">
<path d="M0.5 43.4065V38.6015C0.56578 38.0254 0.633164 37.4477 0.697339 36.8715C1.67922 28.048 5.04843 20.2645 10.9927 13.6653C17.3059 6.66014 25.1257 2.28531 34.4311 0.638732C35.9745 0.364302 37.5372 0.210236 39.0902 0C40.6914 0 42.2926 0 43.8937 0C44.1536 0.0481456 44.4104 0.10592 44.6719 0.144437C46.464 0.402818 48.2785 0.54886 50.0433 0.93242C59.9472 3.08453 68.0477 8.19117 74.1251 16.2796C81.6031 26.2329 84.0787 37.4316 81.5293 49.6221C79.4789 59.4277 74.3433 67.4007 66.4161 73.4991C57.8567 80.0822 48.1101 82.8217 37.3848 81.7898C28.5462 80.9392 20.7714 77.4695 14.1693 71.5203C7.15979 65.202 2.78464 57.3751 1.13694 48.0622C0.864195 46.5215 0.70857 44.9584 0.5 43.4065ZM35.1948 47.8503C33.5567 46.3514 32.0662 44.9792 30.5677 43.6151C28.3184 41.5673 26.1188 39.4618 23.7972 37.499C21.949 35.9359 19.0723 36.5457 17.9124 38.5951C16.9112 40.3653 17.3123 42.4227 18.9729 43.9393C23.3689 47.9498 27.7697 51.9555 32.1673 55.9645C34.3493 57.9545 36.4863 57.9224 38.5704 55.8537C47.0175 47.4684 55.4645 39.083 63.9084 30.696C64.1539 30.4521 64.401 30.205 64.6224 29.9402C66.3102 27.9293 65.7743 24.9795 63.4913 23.686C61.7265 22.6878 59.867 23.0345 58.2113 24.6875C50.7573 32.1404 43.3049 39.595 35.8558 47.0543C35.6296 47.2806 35.4451 47.5454 35.1932 47.8519L35.1948 47.8503Z" fill="#2DD504"/>
<path d="M35.1954 47.8502C35.4473 47.5453 35.6334 47.2789 35.858 47.0526C43.3071 39.5948 50.7595 32.1387 58.2134 24.6857C59.8676 23.0311 61.727 22.6845 63.4935 23.6843C65.7765 24.9762 66.3124 27.9275 64.6246 29.9384C64.4016 30.2032 64.1561 30.4504 63.9106 30.6943C55.4651 39.0813 47.0197 47.4682 38.5726 55.852C36.4901 57.919 34.3531 57.9527 32.1695 55.9627C27.7719 51.9538 23.3711 47.9497 18.9751 43.9375C17.3145 42.4226 16.9118 40.3635 17.9146 38.5934C19.0745 36.544 21.9512 35.9341 23.7994 37.4973C26.1194 39.46 28.3206 41.5656 30.5699 43.6134C32.0668 44.9775 33.5589 46.348 35.197 47.8486L35.1954 47.8502Z" fill="white"/>
</g>
<defs>
<clipPath id="clip0_457_13557">
<rect width="82" height="82" fill="white" transform="translate(0.5)"/>
</clipPath>
</defs>
</svg>
