<svg width="37" height="36" viewBox="0 0 37 36" fill="none" xmlns="http://www.w3.org/2000/svg">
<path d="M18.708 28.542C24.53 28.542 29.25 23.822 29.25 18C29.25 12.178 24.53 7.45801 18.708 7.45801C12.886 7.45801 8.16602 12.178 8.16602 18C8.16602 23.822 12.886 28.542 18.708 28.542Z" fill="#1877F2"/>
<path d="M22.8138 21.0472L23.2798 18.0002H20.3558V16.0232C20.3558 15.1892 20.7648 14.3762 22.0738 14.3762H23.4038V11.7822C22.6232 11.6559 21.8344 11.5871 21.0438 11.5762C18.6358 11.5762 17.0618 13.0362 17.0618 15.6782V18.0002H14.3848V21.0472H17.0618V28.4132C18.1528 28.5842 19.2648 28.5842 20.3558 28.4132V21.0472H22.8138Z" fill="white"/>
</svg>
