<svg width="14" height="14" viewBox="0 0 14 14" fill="none" xmlns="http://www.w3.org/2000/svg">
<g clip-path="url(#clip0_280_5303)">
<path d="M7.49686 14.0002H6.51321C6.48337 13.9917 6.45408 13.9778 6.42369 13.9753C5.4644 13.9001 4.56343 13.6277 3.71173 13.1827C3.64904 13.1499 3.55459 13.1452 3.48505 13.1641C2.87208 13.3291 2.26103 13.5013 1.65025 13.674C1.27601 13.7799 0.903136 13.8913 0.529442 14.0002H0.310974C0.00928063 13.8305 -0.0394502 13.706 0.0569165 13.3617C0.322746 12.4133 0.586933 11.4644 0.855501 10.5166C0.881509 10.425 0.862071 10.3546 0.820458 10.2744C0.00051998 8.69631 -0.212199 7.03526 0.215429 5.31263C1.23878 1.19107 5.68123 -1.09072 9.61365 0.51997C11.9681 1.48447 13.3906 3.2706 13.8905 5.77435C13.9392 6.01848 13.9641 6.26727 14 6.51414V7.4978C13.9912 7.53256 13.9775 7.56704 13.9745 7.60235C13.8751 8.81974 13.4864 9.93833 12.7896 10.9398C11.6727 12.5447 10.153 13.5412 8.22235 13.8938C7.98198 13.9375 7.73888 13.9652 7.49686 14.0002ZM1.01483 12.9969C1.8397 12.7656 2.63993 12.5444 3.43769 12.3156C3.62905 12.2609 3.79359 12.2779 3.97072 12.3764C5.36393 13.152 6.84392 13.3721 8.39811 13.0157C11.7685 12.2434 13.8494 8.80907 12.9837 5.46425C12.1389 2.19963 8.82519 0.212612 5.54188 1.00988C4.1139 1.35665 2.95476 2.12874 2.07213 3.29906C1.10792 4.57803 0.7167 6.02943 0.863166 7.62069C0.943928 8.50062 1.21441 9.32608 1.66011 10.0911C1.73868 10.226 1.75346 10.3606 1.70911 10.5093C1.64286 10.7309 1.58373 10.9548 1.52158 11.1779C1.35486 11.7759 1.1884 12.3739 1.01483 12.9966V12.9969Z" fill="#D9D9D9"/>
<path d="M8.31691 10.7922C7.3516 10.7418 6.50155 10.3975 5.72678 9.85503C4.67797 9.12071 3.89609 8.17072 3.47202 6.95114C3.23138 6.25924 3.15445 5.55366 3.36854 4.83576C3.54895 4.23089 3.94865 3.78505 4.44335 3.43171C4.94079 3.07645 5.61618 3.15363 6.06571 3.57211C6.21875 3.71471 6.36713 3.86305 6.51004 4.01632C6.98201 4.52293 6.99324 5.28352 6.53851 5.80546C6.46377 5.89112 6.3789 5.96776 6.3017 6.05123C6.19356 6.16837 6.18808 6.30248 6.30033 6.41607C6.72905 6.85015 7.16051 7.28149 7.59471 7.71009C7.70805 7.82203 7.84247 7.81574 7.95992 7.70763C8.03356 7.63975 8.10063 7.56504 8.17455 7.49743C8.70922 7.01026 9.49275 7.01874 10.0151 7.51823C10.1435 7.64085 10.2683 7.7673 10.3921 7.89456C10.9325 8.44907 10.9298 9.24552 10.3956 9.80468C10.0395 10.1777 9.66249 10.519 9.14561 10.6441C8.87348 10.7101 8.59342 10.7434 8.31691 10.7916V10.7922ZM4.05597 5.69023C4.08636 5.90098 4.09266 6.11856 4.15042 6.32164C4.64293 8.0492 5.76538 9.18996 7.44195 9.79373C7.88846 9.95439 8.35469 9.98258 8.82612 9.88021C9.2929 9.77895 9.60773 9.46694 9.88971 9.1177C10.0313 8.94226 9.99128 8.67295 9.8314 8.50299C9.70355 8.36723 9.5716 8.23477 9.43581 8.10695C9.22583 7.90907 8.93481 7.91317 8.72373 8.1127C8.64762 8.18468 8.57699 8.26241 8.49952 8.33247C8.08476 8.70826 7.46659 8.72085 7.06141 8.33548C6.58669 7.88416 6.12293 7.42025 5.67176 6.94539C5.2882 6.54197 5.30299 5.91794 5.67997 5.50768C5.75389 5.42721 5.83574 5.35414 5.90911 5.2734C6.09254 5.07141 6.09938 4.79087 5.91815 4.59244C5.78318 4.44465 5.64082 4.30342 5.49381 4.16767C5.3227 4.00975 5.04154 3.99114 4.86496 4.13592C4.37655 4.53634 4.03325 5.01503 4.05597 5.69023Z" fill="#D9D9D9"/>
</g>
<defs>
<clipPath id="clip0_280_5303">
<rect width="14" height="14" fill="white"/>
</clipPath>
</defs>
</svg>
