<svg width="37" height="36" viewBox="0 0 37 36" fill="none" xmlns="http://www.w3.org/2000/svg">
<path d="M19.2067 11.7948C20.6645 11.7937 22.0755 12.3088 23.1897 13.2488L26.3097 10.2768C25.1118 9.17215 23.6728 8.36195 22.1071 7.91047C20.5414 7.45899 18.892 7.37866 17.2898 7.67586C15.6876 7.97307 14.1767 8.63961 12.8771 9.62261C11.5775 10.6056 10.5248 11.878 9.80273 13.3388L13.3217 16.0508C13.732 14.8136 14.5211 13.7368 15.5773 12.973C16.6335 12.2091 17.9033 11.7969 19.2067 11.7948Z" fill="#D94F3D"/>
<path d="M13.0041 17.9979C13.0041 17.3359 13.1121 16.6779 13.3221 16.0509L9.80305 13.3389C9.08346 14.7865 8.70898 16.3812 8.70898 17.9979C8.70898 19.6145 9.08346 21.2092 9.80305 22.6569L13.3221 19.9449C13.1124 19.3171 13.005 18.6597 13.0041 17.9979Z" fill="#F2C042"/>
<path d="M29.2769 16.0899H19.2559V20.3839H24.9339C24.5961 21.5979 23.8224 22.6447 22.7609 23.3239L26.2509 26.0159C28.4829 24.0139 29.7929 20.7589 29.2769 16.0899Z" fill="#5085ED"/>
<path d="M22.7587 23.3243C21.6796 23.942 20.4493 24.2458 19.2067 24.2013C17.9031 24.1994 16.6331 23.7873 15.5767 23.0234C14.5203 22.2596 13.7311 21.1827 13.3207 19.9453L9.80273 22.6573C10.6717 24.4093 12.0122 25.884 13.6736 26.9157C15.3349 27.9475 17.2511 28.4952 19.2067 28.4973C21.7797 28.5673 24.2877 27.6823 26.2487 26.0153L22.7587 23.3253V23.3243Z" fill="#57A75C"/>
</svg>
