<svg width="18" height="16" viewBox="0 0 18 16" fill="none" xmlns="http://www.w3.org/2000/svg">
<path d="M8.98557 15.9298C6.4323 14.1109 4.04129 12.1298 2.09004 9.67047C1.24465 8.60305 0.523074 7.46304 0.168691 6.12237C-0.578502 3.31719 1.23184 0.494935 4.1096 0.085046C6.08219 -0.196753 7.66624 0.546172 8.82759 2.16865C8.8831 2.2455 8.93006 2.32236 8.99838 2.4291C9.04534 2.36078 9.08377 2.30528 9.11793 2.25404C10.2024 0.56752 12.128 -0.218101 13.9213 0.0893159C15.9665 0.443699 17.4651 1.87831 17.8921 3.83809C18.1526 5.04641 17.922 6.19068 17.4096 7.29226C16.8332 8.53473 16.0177 9.61496 15.1126 10.6311C13.3278 12.6251 11.2869 14.3287 9.10085 15.8615C9.06669 15.8786 9.0368 15.8957 8.98557 15.9298ZM8.37073 4.84146C8.35366 4.68776 8.34085 4.55966 8.32377 4.43584C8.04624 1.86123 5.10016 0.465047 2.91409 1.87404C1.46667 2.80483 0.924423 4.55113 1.55206 6.259C1.95341 7.35203 2.61094 8.29563 3.34533 9.18372C4.64758 10.7635 6.15904 12.1298 7.7559 13.4022C8.16579 13.7267 8.58422 14.0426 8.99838 14.3628C11.0436 12.8343 12.9649 11.2075 14.5917 9.25631C15.2705 8.4408 15.8811 7.57833 16.3081 6.60057C16.6326 5.85765 16.7991 5.09338 16.671 4.27787C16.4105 2.61696 15.0058 1.39157 13.2681 1.31044C11.684 1.23786 10.164 2.37359 9.76692 3.94056C9.69433 4.2309 9.66018 4.53405 9.60894 4.84146C9.19905 4.84146 8.78916 4.84146 8.37073 4.84146Z" fill="white"/>
</svg>
