<svg width="444" height="57" viewBox="0 0 444 57" fill="none" xmlns="http://www.w3.org/2000/svg">
<g clip-path="url(#clip0_280_5495)">
<path d="M420.078 0H23.9216C9.75111 0 0 9.12716 0 9.12716C40.1258 -14.1158 44.9629 57 73.7875 57H370.213C399.037 57 403.874 -14.1158 444 9.12716C444 9.12716 434.249 0 420.078 0Z" fill="#FFE502"/>
<path d="M73.7871 57.0001H370.212C394.958 57.0001 402.027 4.57488 428.928 4.46303C427.059 4.44066 425.19 4.61962 423.365 5.11177C421.023 5.78289 418.77 6.80074 416.725 8.15416C412.647 10.9057 409.261 14.5745 406.27 18.4558C400.246 26.2183 395.519 34.8757 389.692 42.56C386.812 46.3965 383.624 50.0429 379.787 52.5931C377.886 53.9018 375.775 54.7631 373.598 55.2329C372.51 55.5125 371.399 55.5237 370.289 55.5908L366.683 55.5572L337.749 55.244C299.162 54.8302 260.586 54.7743 222 54.7183C183.413 54.7743 144.837 54.8302 106.251 55.2552L77.316 55.5684L73.7101 55.602C72.5998 55.5349 71.4895 55.5237 70.4011 55.244C68.2354 54.7743 66.1137 53.9018 64.2119 52.6043C60.3642 50.0429 57.1871 46.3965 54.2959 42.5712C48.4694 34.8869 43.7422 26.2295 37.7179 18.467C34.7277 14.5857 31.3417 10.9169 27.2632 8.16534C25.2184 6.81193 22.9538 5.79407 20.6232 5.12296C18.7983 4.63081 16.9294 4.45184 15.0605 4.47421C41.9613 4.59725 49.03 57.0113 73.7761 57.0113L73.7871 57.0001Z" fill="#FFE502"/>
</g>
<defs>
<clipPath id="clip0_280_5495">
<rect width="444" height="57" fill="white"/>
</clipPath>
</defs>
</svg>
