<svg width="15" height="18" viewBox="0 0 15 18" fill="none" xmlns="http://www.w3.org/2000/svg">
<path d="M10.8532 4.6742C11.5442 4.6742 12.2082 4.6742 12.8653 4.6742C13.3802 4.6742 13.4751 4.7555 13.536 5.25007C13.9832 8.65109 14.4303 12.0453 14.8775 15.4464C14.9181 15.758 14.9859 16.0629 14.9994 16.3745C15.0062 16.5303 14.952 16.7133 14.8639 16.8352C14.7284 17.0249 14.5455 17.1875 14.3626 17.3298C14.2677 17.4043 14.1187 17.4517 13.99 17.4517C9.66078 17.4585 5.33159 17.4585 1.0024 17.4517C0.866903 17.4517 0.69753 17.384 0.595906 17.2959C-0.0680385 16.7133 -0.0544892 16.7133 0.0606848 15.8664C0.379107 13.4952 0.68398 11.1172 0.995627 8.73916C1.15145 7.55355 1.30727 6.37471 1.4631 5.18909C1.52407 4.7555 1.63247 4.66742 2.07962 4.66742C2.74356 4.66742 3.40073 4.66065 4.06468 4.66065C4.07823 4.66065 4.09177 4.6471 4.1392 4.63355C4.1392 4.40997 4.1392 4.17963 4.1392 3.9425C4.14597 2.07939 5.43999 0.66343 7.28955 0.507607C9.09168 0.351783 10.7854 1.86937 10.8464 3.69183C10.8599 4.00348 10.8532 4.31512 10.8532 4.6742ZM12.7366 5.49396C12.6485 5.48719 12.6147 5.48719 12.5808 5.48719C9.21363 5.48719 5.83971 5.48719 2.47256 5.48041C2.25577 5.48041 2.22867 5.58204 2.20834 5.75141C1.98477 7.49935 1.74765 9.24051 1.5173 10.9884C1.28695 12.7093 1.06338 14.4301 0.839803 16.1509C0.792378 16.4897 0.948202 16.6591 1.28695 16.6591C5.42644 16.6591 9.56593 16.6591 13.7054 16.6591C14.0238 16.6591 14.1932 16.4829 14.1526 16.1713C14.0103 15.0873 13.868 14.0101 13.7257 12.9261C13.4615 10.941 13.2041 8.94919 12.9398 6.96413C12.8721 6.46956 12.8043 5.98176 12.7366 5.49396ZM4.93187 4.6471C6.66625 4.6471 8.34644 4.6471 10.0402 4.6471C10.0402 4.3219 10.0537 4.01025 10.0402 3.6986C9.99275 2.44524 8.95618 1.4019 7.67572 1.31382C6.41558 1.22575 5.21641 2.14037 5.01994 3.37341C4.95219 3.78668 4.95897 4.20673 4.93187 4.6471Z" fill="white"/>
</svg>
