<svg width="19" height="16" viewBox="0 0 19 16" fill="none" xmlns="http://www.w3.org/2000/svg">
<path d="M9.48557 15.9059C6.9323 14.087 4.54129 12.1059 2.59004 9.64654C1.74465 8.57912 1.02307 7.43912 0.668691 6.09844C-0.0785024 3.29326 1.73184 0.471009 4.6096 0.0611202C6.58219 -0.220678 8.16624 0.522246 9.32759 2.14472C9.3831 2.22158 9.43006 2.29843 9.49838 2.40517C9.54534 2.33686 9.58377 2.28135 9.61793 2.23012C10.7024 0.543594 12.628 -0.242026 14.4213 0.0653901C16.4665 0.419773 17.9651 1.85438 18.3921 3.81416C18.6526 5.02248 18.422 6.16676 17.9096 7.26833C17.3332 8.51081 16.5177 9.59103 15.6126 10.6072C13.8278 12.6012 11.7869 14.3048 9.60085 15.8376C9.56669 15.8546 9.5368 15.8717 9.48557 15.9059ZM8.87073 4.81754C8.85366 4.66383 8.84085 4.53574 8.82377 4.41192C8.54624 1.8373 5.60016 0.441122 3.41409 1.85011C1.96667 2.7809 1.42442 4.5272 2.05206 6.23507C2.45341 7.32811 3.11094 8.2717 3.84533 9.1598C5.14758 10.7396 6.65904 12.1059 8.2559 13.3782C8.66579 13.7027 9.08422 14.0187 9.49838 14.3389C11.5436 12.8104 13.4649 11.1836 15.0917 9.23238C15.7705 8.41687 16.3811 7.5544 16.8081 6.57664C17.1326 5.83372 17.2991 5.06945 17.171 4.25394C16.9105 2.59304 15.5058 1.36764 13.7681 1.28652C12.184 1.21393 10.664 2.34967 10.2669 3.91664C10.1943 4.20698 10.1602 4.51012 10.1089 4.81754C9.69905 4.81754 9.28916 4.81754 8.87073 4.81754Z" fill="black"/>
</svg>
