<svg width="8" height="6" viewBox="0 0 8 6" fill="none" xmlns="http://www.w3.org/2000/svg">
<path d="M4.00077 4.41552C4.04925 4.35796 4.07652 4.3216 4.10985 4.28827C5.18547 3.21265 6.26109 2.134 7.33974 1.06141C7.4064 0.994749 7.4973 0.940211 7.58819 0.915971C7.72757 0.876583 7.87907 0.96142 7.95179 1.08868C8.0245 1.21593 8.01541 1.37652 7.92149 1.49468C7.89422 1.53104 7.86089 1.56134 7.82756 1.59467C6.65801 2.76422 5.48846 3.93377 4.31891 5.10634C4.09167 5.33359 3.90988 5.33359 3.68566 5.10937C2.504 3.92771 1.32536 2.74604 0.14369 1.5674C0.0315832 1.4553 -0.032045 1.33107 0.0164337 1.17048C0.0891517 0.925061 0.380024 0.831133 0.583028 0.985659C0.619387 1.01293 0.649686 1.04626 0.683015 1.07959C1.75561 2.15218 2.83123 3.2278 3.90382 4.30039C3.93411 4.32766 3.95835 4.36402 4.00077 4.41552Z" fill="#BEBEBE"/>
</svg>
