<svg width="15" height="15" viewBox="0 0 15 15" fill="none" xmlns="http://www.w3.org/2000/svg">
<path d="M11.561 14.9963C10.4542 14.9798 9.5457 14.666 8.67021 14.2489C7.17113 13.5344 5.85789 12.5516 4.64789 11.42C3.25205 10.1192 2.02966 8.67377 1.09635 6.99712C0.621437 6.1464 0.237375 5.25851 0.0721874 4.29217C-0.0269252 3.71814 -0.0517034 3.13585 0.179559 2.5866C0.282802 2.34295 0.427341 2.10756 0.609047 1.91759C1.117 1.3766 1.65386 0.860392 2.18246 0.335921C2.62847 -0.105956 3.24379 -0.110085 3.6898 0.331792C4.42488 1.05862 5.15171 1.78957 5.87854 2.52053C6.31215 2.95828 6.31215 3.56947 5.88267 4.01548C5.67205 4.23435 5.46557 4.46148 5.2343 4.65971C4.89567 4.94466 4.84611 5.29568 4.93697 5.69626C5.06086 6.23312 5.30451 6.71217 5.61423 7.1623C6.36584 8.25667 7.29915 9.15281 8.48437 9.76401C8.83953 9.94572 9.2112 10.0861 9.61591 10.1026C9.87195 10.115 10.0867 10.0407 10.2684 9.8466C10.4955 9.59882 10.7392 9.36756 10.9787 9.13217C11.4247 8.69029 12.04 8.68616 12.4819 9.12391C13.2129 9.85073 13.9438 10.5817 14.6706 11.3126C15.1125 11.7545 15.1084 12.374 14.6665 12.82C14.1544 13.3362 13.6424 13.8524 13.122 14.3604C12.6554 14.8146 12.0896 15.0128 11.561 14.9963ZM4.76352 4.51517C3.73522 3.48688 2.71106 2.46271 1.68277 1.43442C1.43912 1.67807 1.18307 1.93824 0.922904 2.19841C0.720549 2.40077 0.584269 2.64029 0.514064 2.91698C0.386044 3.41254 0.431471 3.91224 0.534713 4.40367C0.724679 5.29981 1.09222 6.12988 1.55475 6.91452C3.17359 9.66903 5.36232 11.8578 8.12509 13.4642C9.04601 14.0011 10.0206 14.4223 11.0985 14.5421C11.5982 14.5958 12.1102 14.5916 12.5273 14.2819C12.9114 13.9969 13.2418 13.6335 13.5804 13.3155C12.5356 12.2707 11.5156 11.2507 10.4914 10.2265C10.1156 10.5569 9.72741 10.5817 9.33096 10.4991C9.0171 10.4289 8.69912 10.3422 8.40591 10.2059C7.2785 9.68142 6.37823 8.86787 5.61011 7.90565C5.14758 7.32749 4.75526 6.69978 4.55703 5.97708C4.42075 5.44848 4.37533 4.93227 4.76352 4.51517ZM5.12693 4.17241C5.2756 4.01961 5.43253 3.86268 5.5812 3.70575C5.82898 3.44145 5.82898 3.09456 5.57294 2.83439C5.38297 2.64029 5.18888 2.44619 4.99478 2.2521C4.45379 1.71111 3.91693 1.17012 3.37594 0.633259C3.13642 0.393737 2.80191 0.3607 2.56652 0.567184C2.37656 0.732372 2.2155 0.926467 2.05031 1.09991C3.06621 2.11169 4.08625 3.13172 5.12693 4.17241ZM13.9232 12.9687C14.0636 12.8241 14.204 12.6754 14.3485 12.5268C14.6376 12.2294 14.6376 11.8908 14.3485 11.5976C14.0553 11.3003 13.758 11.007 13.4607 10.7097C13.0353 10.2844 12.6099 9.85486 12.1804 9.4295C11.9368 9.18998 11.5982 9.15694 11.3545 9.36756C11.1687 9.52862 11.0076 9.71858 10.8466 9.8879C11.8625 10.9079 12.8825 11.928 13.9232 12.9687Z" fill="#BABABA"/>
<path d="M7.71191 1.07524C7.71191 0.930698 7.71191 0.798547 7.71191 0.670527C11.3254 0.575544 14.4351 3.76367 14.3277 7.29042C14.1997 7.29042 14.0758 7.29042 13.9271 7.29042C13.8941 5.59312 13.3035 4.11469 12.0976 2.90882C10.8959 1.70295 9.42574 1.1124 7.71191 1.07524Z" fill="#BABABA"/>
<path d="M12.5519 7.28643C12.4198 7.28643 12.2876 7.28643 12.1472 7.28643C12.1224 6.06405 11.6971 5.01097 10.834 4.152C9.97499 3.29715 8.92604 2.87592 7.71191 2.84701C7.71191 2.70661 7.71191 2.57446 7.71191 2.4423C10.3054 2.35558 12.6428 4.66821 12.5519 7.28643Z" fill="#BABABA"/>
<path d="M10.7844 7.47604C10.6523 7.47604 10.5201 7.47604 10.3756 7.47604C10.3508 6.74922 10.103 6.11738 9.59092 5.60116C9.07471 5.08495 8.447 4.82891 7.71191 4.81239C7.71191 4.66785 7.71191 4.5357 7.71191 4.40355C9.24816 4.32509 10.8381 5.71679 10.7844 7.47604Z" fill="#BABABA"/>
</svg>
